<svg width="228" height="81" viewBox="0 0 228 81" fill="none" xmlns="http://www.w3.org/2000/svg">
<path d="M58.6561 37.8781L65.9865 20.7442L73.0985 37.8781H58.6561ZM68.7897 0.347656L45.1533 56.6346H50.5502L56.4973 42.7283H75.1473L80.8289 56.6346H91.7153L68.7897 0.347656Z" fill="#68737A"/>
<path d="M112.11 28.9337L127.72 56.6344H139.36L125.053 31.4156L129.154 29.6621C134.608 27.5539 138.47 22.3579 138.47 16.2746C138.47 8.32939 131.88 1.88452 123.743 1.88452H99.3691V56.6344H109.931V5.44055L118.597 5.4126C123.655 5.4126 128.294 10.5021 128.294 16.7025C128.294 22.419 124.808 27.14 120.298 27.8421L112.11 28.9337Z" fill="#68737A"/>
<path d="M149.058 1.88452V56.6344H182.363V51.5432H160.508V30.4201H180.878V25.8912H160.508V6.49024H181.844V1.88452H149.058Z" fill="#68737A"/>
<path d="M195.076 1.88452V56.6344H227.84V51.5711H206.636V1.88452H195.076Z" fill="#68737A"/>
<path d="M44.682 53.1292C40.0885 56.294 34.4977 58.1506 28.4825 58.1506C12.7913 58.1506 0.0639648 45.5526 0.0639648 30.015C0.0639648 14.474 12.7913 1.87769 28.4825 1.87769C34.4802 1.87769 40.0431 3.72032 44.6331 6.86416L44.6051 13.1256C41.0875 7.70426 34.4663 5.12457 28.6991 5.86861C17.8092 7.27286 10.5871 15.5743 11.5582 31.4158C12.3162 45.6434 22.0132 54.7553 32.5398 53.9082C37.1176 53.5449 40.3313 52.3258 44.6488 48.5252L44.682 53.1292Z" fill="#68737A"/>
<path d="M152.424 73.5586H1.42578V80.3475H152.424V73.5586Z" fill="#68737A"/>
<path d="M177.001 73.5586H156.301V80.3475H177.001V73.5586Z" fill="#EF4123"/>
<path d="M227.922 73.5586H180.551V80.3475H227.922V73.5586Z" fill="#68737A"/>
</svg>
